<svg xmlns="http://www.w3.org/2000/svg" width="60" height="60" fill="none" aria-hidden="true" viewBox="0 0 60 60"><path fill="#000" d="M18.118 7.118a7.118 7.118 0 1 1-14.236 0 7.118 7.118 0 0 1 14.236 0M49 14.235A7.118 7.118 0 1 0 49 0a7.118 7.118 0 0 0 0 14.235"/><path fill="#000" d="M13 47H0V21.353C0 17.89 2.693 15.61 5 14c1.941 1.45 3.443 2 6 2s4.059-.706 6-2c.857.598 1.615.933 2.451 1.814A11.4 11.4 0 0 0 19 19c0 2.574.852 5.083 2.285 7.136C17.72 28.67 13 33.16 13 38.61zM40.549 15.814c.836-.88 1.594-1.216 2.451-1.814 1.941 1.45 3.443 2 6 2s4.059-.706 6-2c2.307 1.61 5 3.89 5 7.353V47H47v-8.389c0-5.45-4.72-9.941-8.285-12.475C40.148 24.083 41 21.574 41 19c0-1.107-.158-2.176-.451-3.186"/><path fill="#000" d="M39.5 19.185C39.5 24.81 35.36 29 30 29s-9-4.19-9-9.815S24.64 10 30 10s9.5 3.56 9.5 9.185"/><path fill="#000" d="M15 39.556C15 34.6 19.354 30.303 22.5 28c2.647 2.075 4.014 3 7.5 3s5.353-1.148 8-3c3.146 2.303 7 6.6 7 11.556V60H15z"/></svg>