<svg xmlns="http://www.w3.org/2000/svg" width="60" height="60" fill="none" aria-hidden="true" viewBox="0 0 60 60"><path fill="#000" fill-rule="evenodd" d="M14.94 17.06 7.752 9.875A29.9 29.9 0 0 0 0 30c0 16.569 13.432 30 30 30a29.9 29.9 0 0 0 20.126-7.752L42.94 45.06l2.122-2.122 7.187 7.187A29.9 29.9 0 0 0 60 30C60 13.432 46.569 0 30 0A29.9 29.9 0 0 0 9.874 7.753l7.187 7.186zm16.56-5.508V7h-3v4.538c-2.04.11-4.392.489-6.404 1.581-1.292.702-2.462 1.707-3.301 3.125S17.5 19.404 17.5 21.5c0 1.56.43 2.888 1.228 3.996.78 1.085 1.853 1.875 3.014 2.483 1.944 1.017 4.416 1.651 6.758 2.235v15.263c-1.96-.068-3.766-.313-5.166-1.064-.831-.447-1.511-1.07-1.998-1.975-.494-.918-.836-2.214-.836-4.065h-3c0 2.212.408 4.027 1.195 5.487.794 1.476 1.926 2.5 3.22 3.196 2.014 1.082 4.429 1.358 6.585 1.424V52h3v-3.556c2.264-.171 4.671-.751 6.67-2 2.537-1.586 4.33-4.21 4.33-8.071 0-3.685-1.674-6.115-4.105-7.738-1.992-1.33-4.499-2.122-6.895-2.755V14.56c1.72.143 3.505.546 4.943 1.367C38.2 16.931 39.5 18.578 39.5 21.5h3c0-4.078-1.95-6.68-4.568-8.177-2.007-1.147-4.358-1.625-6.432-1.77m-3 2.992c-1.754.107-3.54.434-4.973 1.212-.895.486-1.63 1.137-2.15 2.016-.52.88-.877 2.075-.877 3.728 0 .972.257 1.68.663 2.243.422.587 1.068 1.106 1.97 1.578 1.445.755 3.286 1.27 5.367 1.798zm3 16.445v14.445c1.849-.165 3.662-.648 5.08-1.534 1.713-1.072 2.92-2.762 2.92-5.527 0-2.57-1.076-4.111-2.77-5.243-1.399-.933-3.203-1.574-5.23-2.14" clip-rule="evenodd"/></svg>