<svg xmlns="http://www.w3.org/2000/svg" width="60" height="60" fill="none" aria-hidden="true" viewBox="0 0 60 60"><path fill="#000" fill-rule="evenodd" d="M15 6 0 0v55l15 5 15-5 15 5 15-5V0L45 6 30 0zm-2.5 18a5.5 5.5 0 0 0 5.37-4.309c1.993-.336 4.368-.632 6.72-.683 2.906-.063 5.531.257 7.357 1.137.883.425 1.515.951 1.933 1.573.41.61.694 1.433.694 2.6 0 .811-.236 1.304-.578 1.68-.389.427-1.043.836-2.074 1.194-1.921.667-4.472.947-7.395 1.269l-.962.106c-3.14.35-6.673.8-9.419 2.09-1.413.663-2.726 1.593-3.68 2.94C9.5 34.966 9 36.62 9 38.549c0 1.99.92 3.575 2.303 4.737 1.322 1.112 3.076 1.856 4.942 2.376 3.74 1.041 8.589 1.351 13.26 1.339 4.71-.013 9.403-.357 12.906-.695l.112-.01A5.5 5.5 0 1 0 48 37.69V24.8l8-4.8-10-6v23.69a5.5 5.5 0 0 0-4.452 4.68c-3.373.315-7.721.618-12.054.63-4.577.012-8.98-.303-12.176-1.193-1.603-.446-2.74-.994-3.441-1.584-.641-.539-.877-1.063-.877-1.675 0-1.208.3-2.03.731-2.639.445-.628 1.13-1.17 2.114-1.632 2.05-.961 4.91-1.371 8.164-1.735l.999-.11c2.808-.305 5.845-.635 8.225-1.46 1.367-.475 2.71-1.172 3.72-2.28 1.057-1.161 1.62-2.634 1.62-4.373 0-1.86-.467-3.482-1.373-4.831-.898-1.337-2.144-2.285-3.516-2.946-2.684-1.294-6.073-1.6-9.18-1.533-2.58.056-5.136.375-7.247.73A5.5 5.5 0 1 0 12.5 24" clip-rule="evenodd"/></svg>